<?xml version="1.0" standalone="no"?>
<!DOCTYPE svg PUBLIC "-//W3C//DTD SVG 1.1//EN" "http://www.w3.org/Graphics/SVG/1.1/DTD/svg11.dtd" >
<svg xmlns="http://www.w3.org/2000/svg">
<metadata>
Created by FontForge 20120731 at Wed Jul  5 09:45:27 2017
 By admin
</metadata>
<defs>
<font id="iconfont" horiz-adv-x="1024" >
  <font-face 
    font-family="iconfont"
    font-weight="500"
    font-stretch="normal"
    units-per-em="1024"
    panose-1="2 0 6 3 0 0 0 0 0 0"
    ascent="896"
    descent="-128"
    x-height="792"
    bbox="-2 -122 1030 889"
    underline-thickness="0"
    underline-position="0"
    unicode-range="U+0078-E90A"
  />
<missing-glyph 
 />
    <glyph glyph-name=".notdef" 
 />
    <glyph glyph-name=".notdef" 
 />
    <glyph glyph-name=".null" horiz-adv-x="0" 
 />
    <glyph glyph-name="nonmarkingreturn" horiz-adv-x="341" 
 />
    <glyph glyph-name="x" unicode="x" horiz-adv-x="1001" 
d="M281 543q-27 -1 -53 -1h-83q-18 0 -36.5 -6t-32.5 -18.5t-23 -32t-9 -45.5v-76h912v41q0 16 -0.5 30t-0.5 18q0 13 -5 29t-17 29.5t-31.5 22.5t-49.5 9h-133v-97h-438v97zM955 310v-52q0 -23 0.5 -52t0.5 -58t-10.5 -47.5t-26 -30t-33 -16t-31.5 -4.5q-14 -1 -29.5 -0.5
t-29.5 0.5h-32l-45 128h-439l-44 -128h-29h-34q-20 0 -45 1q-25 0 -41 9.5t-25.5 23t-13.5 29.5t-4 30v167h911zM163 247q-12 0 -21 -8.5t-9 -21.5t9 -21.5t21 -8.5q13 0 22 8.5t9 21.5t-9 21.5t-22 8.5zM316 123q-8 -26 -14 -48q-5 -19 -10.5 -37t-7.5 -25t-3 -15t1 -14.5
t9.5 -10.5t21.5 -4h37h67h81h80h64h36q23 0 34 12t2 38q-5 13 -9.5 30.5t-9.5 34.5q-5 19 -11 39h-368zM336 498v228q0 11 2.5 23t10 21.5t20.5 15.5t34 6h188q31 0 51.5 -14.5t20.5 -52.5v-227h-327z" />
    <glyph glyph-name="ziliaoku" unicode="&#xe600;" horiz-adv-x="1026" 
d="M1016 63q5 -31 -13 -55.5t-49 -29.5l-123 -20q-29 -5 -54 13t-31 49l-104 661q-2 16 1.5 29.5t12 25.5t21 19.5t28.5 10.5l121 20q31 5 55.5 -13.5t29.5 -49.5zM501 790q30 0 51.5 -21.5t21.5 -52.5v-684q0 -31 -21.5 -52.5t-51.5 -21.5h-107q-30 0 -51.5 21.5
t-21.5 52.5v684q0 31 16 52.5t48 21.5h116zM501 274q10 0 17 9.5t7 23.5t-7 23t-17 9h-107q-10 0 -17 -9t-7 -23t7 -23.5t17 -9.5h107zM501 404q10 0 17 9.5t7 24t-7 23.5t-17 9h-107q-10 0 -17 -9t-7 -23.5t7 -24t17 -9.5h107zM179 790q31 0 53 -21.5t22 -52.5v-684
q0 -31 -22 -52.5t-53 -21.5h-106q-31 0 -53 21.5t-22 52.5v684q0 31 22 52.5t53 21.5h106zM77 534q-11 0 -18.5 -9.5t-7.5 -23.5q0 -13 7.5 -23t18.5 -10h98q11 0 18 10t7 23q0 14 -7 23.5t-18 9.5h-98zM179 212q11 0 18 9.5t7 22.5q0 14 -7 23t-18 9h-102q-11 0 -18.5 -9
t-7.5 -23q0 -13 7.5 -22.5t18.5 -9.5h102zM179 338q11 0 18 9.5t7 23.5t-7 23.5t-18 9.5h-102q-11 0 -18.5 -9.5t-7.5 -23.5t7.5 -23.5t18.5 -9.5h102z" />
    <glyph glyph-name="wanchengyuan" unicode="&#xe601;" 
d="M510.5 859q-96.5 0 -184 -37.5t-151 -101t-101 -151t-37.5 -184t37.5 -184.5t101 -151t151 -101t184 -38t184.5 38t151 101t101 151t38 184.5t-38 184t-101 151t-151 101t-184.5 37.5zM353 330q1 0 6.5 -6t10.5 -10.5t11.5 -9t11.5 -4.5q18 0 126 121l159 183q9 10 18 10
q15 0 25 -8l51 -51q9 -8 9.5 -20.5t-8.5 -21.5l-289 -306v0l-61 -66q-8 -9 -20.5 -9t-21.5 8l-175 164q-9 9 -9.5 21t8.5 21l41 44q8 9 20.5 9.5t21.5 -8.5z" />
    <glyph glyph-name="right" unicode="&#xe628;" 
d="M512 887q-101 0 -193.5 -39.5t-159.5 -106t-106.5 -159t-39.5 -194t39.5 -193.5t106.5 -159t159.5 -106.5t193.5 -39.5t193.5 39.5t159 106.5t106 159t39.5 193.5t-39.5 194t-106 159t-159 106t-193.5 39.5v0zM823 511l-349 -336q-7 -7 -16 -11q-16 -12 -36.5 -10.5
t-35.5 16.5l-150 150q-16 16 -16 39t16.5 39.5t39.5 16.5t40 -16l112 -113l315 304q17 17 40 17t39.5 -16.5t16.5 -39.5t-16 -40v0zM823 511z" />
    <glyph glyph-name="erweima" unicode="&#xe602;" 
d="M779 -96v107h106v106h107v-213h-213zM885 331h107v-107h-107v107zM939 437h-320q-22 0 -38 16t-16 38v320q0 22 16 37.5t38 15.5h320q22 0 37.5 -15.5t15.5 -37.5v-320q0 -22 -15.5 -38t-37.5 -16zM885 757h-213v-213h213v213zM832 597h-107v107h107v-107zM405 -96h-320
q-22 0 -37.5 15.5t-15.5 37.5v320q0 22 15.5 38t37.5 16h320q22 0 38 -16t16 -38v-320q0 -22 -16 -37.5t-38 -15.5zM352 224h-213v-213h213v213zM299 64h-107v107h107v-107zM405 437h-320q-22 0 -37.5 16t-15.5 38v320q0 22 15.5 37.5t37.5 15.5h320q22 0 38 -15.5t16 -37.5
v-320q0 -22 -16 -38t-38 -16zM352 757h-213v-213h213v213zM299 597h-107v107h107v-107zM779 117h-214v214h214v-214zM672 -96h-107v107h107v-107z" />
    <glyph glyph-name="wendang" unicode="&#xe607;" 
d="M827 784h-630q-35 0 -60 -25t-25 -60v-630q0 -35 25 -60t60 -25h368q10 0 17.5 7t7.5 17.5t-7.5 18t-17.5 7.5h-368q-14 0 -24.5 10.5t-10.5 24.5v630q0 14 10.5 24.5t24.5 10.5h630q14 0 24.5 -10.5t10.5 -24.5v-565q0 -77 -26 -91q-18 -11 -54 11v0q-32 22 -177 157
q37 50 37 113q0 79 -55.5 134.5t-134.5 55.5t-134.5 -55.5t-55.5 -134.5t55.5 -134.5t134.5 -55.5q66 0 118 41q148 -138 184 -162l1 -1l1 -1q21 -13 39 -18q37 -10 66 6q28 16 41 52q10 32 10 83v565q0 35 -25 60t-60 25zM452 184q-58 0 -99 41t-41 99t41 99t99 41t99 -41
t41 -99t-41 -99t-99 -41zM702 514h-60q-10 0 -17.5 7.5t-7.5 17.5t7.5 17.5t17.5 7.5h60q11 0 18 -7.5t7 -17.5t-7 -17.5t-18 -7.5zM702 634h-400q-11 0 -18 7.5t-7 18t7 17.5t18 7h400q11 0 18 -7t7 -17.5t-7 -18t-18 -7.5z" />
    <glyph glyph-name="iconset0119" unicode="&#xe612;" 
d="M542 218h-252q-9 0 -15 -6t-6 -15.5t6 -15.5t15 -6h252q9 0 15 6t6 15.5t-6 15.5t-15 6zM461 94h-171q-9 0 -15 -6t-6 -15.5t6 -15.5t15 -6h167q9 0 15 6t6 16q0 6 -5.5 13.5t-11.5 7.5zM290 427h85q10 0 16 5.5t6 15.5t-6 15.5t-16 5.5h-85q-9 0 -15 -5.5t-6 -15.5
q7 -21 21 -21zM751 841h-312q-35 0 -60 -25.5t-25 -60.5v-64q0 -9 6 -15t15.5 -6t15.5 6t6 15v68q0 17 12 30t30 13h252v-124q0 -16 12 -29t31 -13h119v-418q0 -17 -12 -30t-30 -13h-64q-10 0 -16 -6t-6 -15.5t6 -15.5t16 -6h64q35 0 60 25t25 61v456zM730 674v124l106 -124
h-106zM230 636q-35 0 -60 -25t-25 -61v-541q0 -36 25 -61t60 -25h376q35 0 60 25t25 61v460l-145 167h-316zM644 9q0 -17 -12 -30t-30 -13h-372q-16 0 -29 12t-13 31v541q0 17 12 30t30 13h252v-124q0 -16 12 -29t31 -13h124v-418h-5zM521 469v120l106 -124h-106v4zM273 320
q0 -10 6 -15.5t15 -5.5h252q10 0 15.5 5.5t5.5 15.5t-5.5 15.5t-15.5 5.5h-256q-7 0 -12 -6t-5 -15z" />
    <glyph glyph-name="qita" unicode="&#xe78c;" 
d="M511.5 851q-94.5 0 -180 -36.5t-147.5 -99t-99 -148t-37 -180t37 -180t99 -148t147.5 -99t180 -36.5t180.5 36.5t148 99t98.5 148t36.5 180t-36.5 180t-98.5 148t-148 99t-180.5 36.5zM474 179h-171v171h171v-171zM474 425h-171v171h171v-171zM721 179h-172v171h172v-171
zM721 425h-172v171h172v-171z" />
    <glyph glyph-name="wendang1" unicode="&#xe748;" horiz-adv-x="1053" 
d="M524.5 889q-102.5 0 -196.5 -40t-161.5 -107.5t-107.5 -161.5t-40 -196.5t40 -196t107.5 -161.5t161.5 -108t196.5 -40t196.5 40t161.5 108t107.5 161.5t40 196t-40 196.5t-107.5 161.5t-161.5 107.5t-196.5 40zM524.5 -87q-95.5 0 -183 37.5t-150.5 100.5t-100 150
t-37 182.5t37 183t100 150.5t150.5 100t183 37t183 -37t150.5 -100t100 -150.5t37 -183t-37 -182.5t-100 -150t-150.5 -100.5t-183 -37.5zM619 572h141l-141 141v-141zM572 713h-236q-19 0 -33 -13.5t-14 -33.5v-565q0 -20 14 -33.5t33 -13.5h377q20 0 33.5 13.5t13.5 33.5
v424h-188v188zM666 242h-283v47h283v-47zM666 431v-47h-283v47h283z" />
    <glyph glyph-name="iconwancheng01" unicode="&#xe64c;" 
d="M508.5 862q-96.5 0 -184.5 -37.5t-151.5 -101t-101 -151.5t-37.5 -184.5t37.5 -184.5t101 -151.5t151.5 -101t184.5 -37.5t184.5 37.5t151.5 101t101 151.5t37.5 184.5t-37.5 184.5t-101 151.5t-151.5 101t-184.5 37.5zM778 514l-317 -318q-14 -13 -28 -13q-18 0 -27 13
l-157 157q-13 13 -13 31t13 31t29 13t29 -13l126 -127l284 284q15 13 33.5 13t31.5 -13q10 -10 9.5 -28t-13.5 -30z" />
    <glyph glyph-name="weikaishi" unicode="&#xe613;" 
d="M512 862q-97 0 -185.5 -38t-152.5 -102t-102 -152.5t-38 -185.5t38 -185.5t102 -152.5t152.5 -102t185.5 -38t185.5 38t152.5 102t102 152.5t38 185.5t-38 185.5t-102 152.5t-152.5 102t-185.5 38zM800 323v0h-591q-23 0 -39.5 16t-16.5 39.5t16.5 40t39.5 16.5h591
q23 0 39.5 -16.5t16.5 -40t-16.5 -39.5t-39.5 -16z" />
    <glyph glyph-name="cuowu" unicode="&#xe84c;" 
d="M521 853q-96 0 -185 -38t-153.5 -102.5t-103 -153.5t-38.5 -185.5t38.5 -185.5t103 -153.5t153.5 -103t185.5 -38.5t185.5 38.5t153.5 103t102.5 153.5t38 185.5t-38 185.5t-102.5 153.5t-153.5 102.5t-186 38v0zM726 239q15 -14 15 -32t-14.5 -32t-32 -14t-32.5 14
l-134 134l-141 -140q-14 -15 -35 -15t-35.5 14.5t-14.5 35.5t15 35l140 141l-134 134q-14 15 -14 32.5t14 32t32 14.5t32 -15l134 -134l141 141q15 14 35.5 14t35 -14.5t14.5 -35t-14 -35.5l-141 -141z" />
    <glyph glyph-name="shalou" unicode="&#xe67d;" 
d="M512 864q-98 0 -186.5 -38t-153 -102.5t-102.5 -153t-38 -186.5t38 -186.5t102.5 -153t153 -102.5t186.5 -38t186.5 38t153 102.5t102.5 153t38 186.5t-38 186.5t-102.5 153t-153 102.5t-186.5 38zM729 123q-29 -3 -217.5 -5t-215.5 2v14.5t0.5 22.5t2 26t3.5 30.5
t6.5 32.5t9.5 34.5t13.5 32.5t19 32.5t25 28.5t30.5 24q-33 23 -56.5 54t-34 60t-17 58.5t-4.5 48.5t2 29q3 0 112.5 1t195.5 1t124 -2q2 -13 -1.5 -40.5t-13.5 -65t-37.5 -77.5t-67.5 -66q39 -24 66 -64.5t38.5 -82t15 -74.5t1.5 -55zM344 600q0 -16 2.5 -34.5t11 -48
t32.5 -55.5t59 -41v-46q-98 -47 -105 -207q63 1 198 1.5t138 -1.5q1 20 -4.5 47.5t-17 60.5t-36 60.5t-56.5 38.5l1 47q17 6 35 18t36.5 32.5t30 53.5t11.5 74h-182.5h-153.5zM548 465q-25 -17 -25 -65q0 -18 2.5 -31t9 -21.5t10 -12.5t13 -9.5t10.5 -6.5q19 -13 36.5 -41
t19.5 -58q0 -2 -52 -3.5t-110 -0.5t-71 5q15 76 70 107q18 10 25 26t7 46q0 50 -23 63q-15 8 -33 24t-24 30q16 8 85 10.5t105 -10.5q-6 -10 -12.5 -18t-13 -13.5t-11 -9t-10.5 -7t-8 -4.5z" />
    <glyph glyph-name="shuben" unicode="&#xe603;" horiz-adv-x="1025" 
d="M537 44v553q-4 86 34 129t117 57q35 7 73.5 11t92 9t81.5 8v-654v-54q-8 0 -23 1t-60.5 -0.5t-91 -6.5t-107.5 -18.5t-116 -34.5v0zM556 5q68 11 212 34.5t223 35.5v632h33v-659q-1 -21 -18 -48.5t-30 -28.5h-393q-5 0 -12 8.5t-11 16.5zM490 44v553q4 86 -34 129
t-117 57q-35 7 -73.5 11t-92 9t-81.5 8v-155.5v-175v-158.5v-120t0 -45v-54q8 0 23 1t60.5 -0.5t91 -6.5t107.5 -18.5t116 -34.5v0zM468 5q-67 11 -210 34t-223 36v632v0h-35v-659q1 -20 18.5 -48t30.5 -29h392q5 0 11.5 8.5t10.5 16.5z" />
    <glyph glyph-name="ziliao" unicode="&#xe81d;" 
d="M991 221l2 -9l-533 -111l-2 9zM456 143l533 110l2 -10l-533 -111zM993 185l1 -9l-532 -111l-2 9zM431 164q-23 -72 5 -140l572 130l8 -36l-587 -133l-17 3l-386 241q-37 83 0 148l37 6v-13l495 -111q27 67 4 116l-502 102l5 35l2 1v0v0l30 9l2 31l460 -112q21 62 3 108
l-465 103v47l366 93l424 -86q29 -54 0 -119l-31 -17l57 -9q31 -57 0 -128l-93 -58l197 -54l-2 -38l-584 -119v0z" />
    <glyph glyph-name="cuowu20" unicode="&#xe610;" horiz-adv-x="1025" 
d="M970 -69.5q-22 -21.5 -52.5 -21.5t-52.5 22l-351 350l-350 -350q-22 -22 -52.5 -22t-52.5 22t-22 52.5t22 52.5l350 350l-350 351q-22 22 -22 52.5t21.5 52.5t52.5 22t53 -22l350 -350l351 350q22 22 52.5 22t52.5 -22t22 -52.5t-22 -52.5l-350 -351l350 -350
q22 -22 22 -53t-22 -52.5z" />
    <glyph glyph-name="zhengque" unicode="&#xe634;" 
d="M370 32q-30 0 -51 21l-284 284q-21 21 -21 51t21.5 51.5t51.5 21.5t51 -21l232 -232l515 515q21 21 51.5 21t52 -21.5t21.5 -51.5t-22 -51l-566 -567q-22 -21 -52 -21v0z" />
    <glyph glyph-name="jinxingzhong" unicode="&#xe627;" 
d="M512 856q-97 0 -185 -38t-151.5 -101.5t-101.5 -151.5t-38 -185t38 -185t101.5 -152t151.5 -101.5t185 -37.5t185 37.5t151.5 101.5t101.5 152t38 185t-38 185t-101.5 151.5t-151.5 101.5t-185 38v0zM678 188l-14 -14q-9 -8 -21.5 -8t-20.5 8l-146 146q-10 3 -16 11
t-6 18v297q0 13 8.5 21.5t20.5 8.5h20q13 0 21.5 -8.5t8.5 -21.5v-271l145 -144q8 -9 8 -21.5t-8 -21.5v0z" />
    <glyph glyph-name="shipin" unicode="&#xe629;" horiz-adv-x="1026" 
d="M944 779h-880v-787h900v787h-20zM793 722h80v-85h-80v85zM873 572v-376h-717v376h717zM633 722h81v-85h-81v85zM474 722h80v-85h-80v85zM314 722h80v-85h-80v85zM155 722h80v-85h-80v85zM235 47h-80v85h80v-85zM396 47h-81v85h81v-85zM556 47h-80v85h80v-85zM717 47h-80
v85h80v-85zM878 47h-81v85h81v-85zM449 255l3 -1q2 0 3 2l186 125q2 2 2 4.5t-2 4.5l-186 126q-1 1 -3 1t-3 -1q-3 -1 -3 -5v-251q0 -4 3 -5z" />
    <glyph glyph-name="111111" unicode="&#xe90a;" horiz-adv-x="1043" 
d="M522.5 877q-98.5 0 -188 -38.5t-154 -103t-103 -154t-38.5 -188t38.5 -188t103 -154t154 -102.5t188 -38t188 38t154 102.5t102.5 154t38 188t-38 188t-102.5 154t-154 103t-188 38.5zM440 220q-14 -8 -24 -2.5t-10 21.5v309q0 16 10 21.5t24 -2.5l262 -154
q13 -8 13 -19.5t-13 -19.5z" />
    <glyph glyph-name="weikaishi1" unicode="&#xe87d;" 
d="M32 384q0 -98 38 -186.5t102.5 -153t153 -102.5t186.5 -38t186.5 38t153 102.5t102.5 153t38 186.5t-38 186.5t-102.5 153t-153 102.5t-186.5 38t-186.5 -38t-153 -102.5t-102.5 -153t-38 -186.5z" />
    <glyph glyph-name="lianjie" unicode="&#xe61c;" 
d="M631 494q-38 37 -87 54l42 -21h-5h-5q-19 0 -33 -13.5t-14 -32.5q0 -17 11 -30q5 -6 12 -10q8 -7 12 -11l4 -4q35 -37 29 -88.5t-43 -89.5l-205 -204q-36 -36 -86.5 -36t-86.5 36l-4 4q-36 36 -36 86.5t36 86.5l90 91q22 15 22 41q0 21 -14.5 36t-35.5 15q-18 0 -31 -12
v1l-1 -1q-12 -9 -17 -21l-87 -76q-66 -66 -66 -160.5t66 -160.5l4 -4q66 -66 160.5 -66t160.5 66l204 205q67 67 70 157.5t-62 157.5zM926 794l-4 4q-66 66 -160.5 66t-160.5 -66l-204 -205q-67 -66 -69 -151.5t64 -152.5l3 -3q7 -7 13 -12q4 -5 11 -9q10 -5 21 -5v0v0
q18 0 31 12.5t13 30.5q0 10 -4 19q-2 5 -5.5 9.5t-6 7t-7 6.5t-5.5 6l-4 3q-34 38 -27 83t45 83l205 204q36 36 87 36t87 -36l3 -4q36 -35 36 -86t-36 -87l-90 -90q-20 -16 -20 -41v0q0 -20 14.5 -34.5t35.5 -14.5v0q14 0 26 7v0l1 1q12 8 18 21l89 77q66 66 66 160.5
t-66 160.5zM926 794z" />
    <glyph glyph-name="user" unicode="&#xe604;" 
d="M800 239v0l1 1v-1h-1zM397 517.5q0 -47.5 33.5 -81.5t81.5 -34t81.5 34t33.5 81.5t-33.5 81.5t-81.5 34t-81.5 -34t-33.5 -81.5zM512 870q-99 0 -189 -38.5t-155 -103.5t-103.5 -155t-38.5 -189t38.5 -189t103.5 -155t155 -103.5t189 -38.5t189 38.5t155 103.5t103.5 155
t38.5 189t-38.5 189t-103.5 155t-155 103.5t-189 38.5zM770 135q0 -12 -8 -19.5t-19 -7.5q-15 0 -23 12q-4 6 -4 16q0 84 -59.5 144t-144.5 60t-144.5 -60t-59.5 -144v-0.5v-0.5q0 -11 -8 -19t-19 -8t-19 8t-8 19v0v1q0 80 45 145.5t118 94.5q-34 23 -54.5 60.5t-20.5 80.5
q0 71 49.5 121t120.5 50t120.5 -50t49.5 -121q0 -43 -20.5 -80.5t-54.5 -60.5q73 -29 118 -94.5t45 -145.5v-1v0v0z" />
    <glyph glyph-name="chengjiweikaishi" unicode="&#xe729;" 
d="M512 858q-127 0 -236 -63t-173.5 -172.5t-64.5 -238.5q0 -127 63 -236t172.5 -173.5t238.5 -64.5q127 0 236 63t173.5 172.5t64.5 238.5q0 95 -38 182.5t-102 151.5t-151.5 102t-182.5 38zM512 96q-18 0 -30 12t-12 30t12 30t30 12t30 -12t12 -30t-12 -30t-30 -12z
M554 330q0 -18 -12 -30t-30 -12t-30 12t-12 30v306q0 18 12 30t30 12t30 -12t12 -30v-306z" />
    <glyph glyph-name="tupian" unicode="&#xe614;" 
d="M862 800h-697q-41 0 -70 -29.5t-29 -70.5v-626q0 -41 29 -70t70 -29h697q41 0 70 29t29 70v626q0 41 -29 70.5t-70 29.5zM286 683q38 0 64.5 -26.5t26.5 -64t-26.5 -64.5t-64.5 -27t-64.5 27t-26.5 64.5t26.5 64t64.5 26.5zM165 124l174 231l125 -149l174 224l224 -306
h-697v0z" />
    <glyph glyph-name="half-cirle" unicode="&#xe606;" 
d="M830 702q-62 62 -143.5 97t-172.5 35h-2q-91 0 -174.5 -35.5t-144 -96t-96 -144t-35.5 -174.5t35.5 -174.5t96 -144t143.5 -96t174.5 -35.5t175 35.5t144 96t96 144t35.5 174.5v2q0 91 -35 172.5t-97 143.5zM110 384q0 109 54 201.5t146.5 146.5t201.5 54t201.5 -54
t146.5 -146.5t54 -201.5h-804z" />
    <glyph glyph-name="wancheng" unicode="&#xe626;" 
d="M512 866q-98 0 -187.5 -38t-154 -102.5t-102.5 -154t-38 -187.5t38 -187.5t102.5 -154t154 -102.5t187.5 -38t187.5 38t154 102.5t102.5 154t38 187.5t-38 187.5t-102.5 154t-154 102.5t-187.5 38zM845 537l-378 -378q-11 -11 -27 -11t-27 11l-234 234q-11 11 -11 27
t11 27l18 18q11 11 27 11t27 -11l189 -189l333 333q11 11 27 11t27 -11l18 -18q11 -11 11 -27t-11 -27z" />
    <glyph glyph-name="bofang" unicode="&#xe605;" 
d="M512 864q-98 0 -186.5 -38t-153 -102.5t-102.5 -153t-38 -186.5t38 -186.5t102.5 -153t153 -102.5t186.5 -38t186.5 38t153 102.5t102.5 153t38 186.5t-38 186.5t-102.5 153t-153 102.5t-186.5 38v0zM715 357l-303 -176q-16 -9 -32 0t-16 28v350q0 19 16 28t32 0
l303 -176q16 -9 16 -27t-16 -27v0z" />
    <glyph glyph-name="zhongxinbofang" unicode="&#xe61a;" 
d="M512 864q-130 0 -240.5 -64.5t-175 -175t-64.5 -240.5t64.5 -240.5t175 -175t240.5 -64.5t240.5 64.5t175 175t64.5 240.5t-64.5 240.5t-175 175t-240.5 64.5zM470 150q-69 14 -117 61t-57 113q-24 81 30 168q9 13 25 14t29 -8q10 -5 12 -19.5t-6 -28.5q-24 -48 -24 -84
q0 -69 55 -115.5t125 -28.5q40 9 72.5 41t41.5 73q13 66 -24.5 118.5t-101.5 61.5q-6 0 -12 -5t-6 -13v-36q0 -5 -7 -7.5t-11 1.5l-108 84q-9 4 -9 15t9 15l114 84q0 6 7 1q5 -3 5 -7v-36q0 -18 18 -18q86 -9 145 -73t59 -149q0 -108 -80.5 -176t-183.5 -46z" />
    <glyph glyph-name="zanting" unicode="&#xe6ab;" 
d="M512 864q-131 0 -241.5 -64t-174.5 -174.5t-64 -241.5t64 -241.5t174.5 -174.5t241.5 -64t241.5 64t174.5 174.5t64 241.5t-64 241.5t-174.5 174.5t-241.5 64zM479 281q0 -26 -19 -45.5t-46 -19.5t-46.5 19t-19.5 46v206q0 26 19 45.5t47 19.5q26 0 45.5 -19t19.5 -46
v-206zM680 281q0 -26 -19 -45.5t-46 -19.5t-46.5 19t-19.5 46v206q0 26 19 45.5t47 19.5q26 0 45.5 -19t19.5 -46v-206z" />
    <glyph glyph-name="shalou1" unicode="&#xe623;" 
d="M576 418q11 8 42 20q41 16 60.5 31t19.5 39v117h-371v-117q0 -24 19.5 -39t59.5 -31q31 -12 42 -20q11 -7 17 -18.5t7 -17.5t1 -9q0 -28 -25 -45q-10 -7 -42 -19q-40 -16 -60 -31t-20 -40v-116h372v116q0 25 -19.5 40t-60.5 31q-32 12 -42 19q-11 8 -17 19.5t-7 17t0 9.5
q0 27 24 44zM473 463q-18 12 -56 26q-2 0 -14 4t-19 6q-15 6 -15 23v30q0 6 4 10.5t10 4.5h260q6 0 10 -4.5t4 -9.5v-31q0 -17 -15 -23q-6 -2 -18.5 -5.5t-15.5 -5.5q-40 -14 -56 -25q-14 -9 -39.5 -9t-39.5 9zM512 870q-101 0 -193 -39t-158.5 -105.5t-105.5 -158.5
t-39 -193t39 -193t105.5 -158.5t158.5 -105.5t193 -39t193 39t158.5 105.5t105.5 158.5t39 193t-39 193t-105.5 158.5t-158.5 105.5t-193 39zM600 359q8 -6 38 -17q24 -8 38 -14.5t33.5 -18.5t29 -30t9.5 -40v-116h13q12 0 20.5 -8.5t8.5 -20.5t-8.5 -20.5t-20.5 -8.5h-498
q-12 0 -20.5 8.5t-8.5 20.5t8.5 20.5t20.5 8.5h14v116q0 23 9.5 40.5t29 30t33 18.5t37.5 15q30 11 38 16q10 6 10 14q0 9 -10 16q-8 5 -38 16q-20 7 -30 11t-28 14t-27 19.5t-16.5 25t-7.5 34.5v117h-14q-12 0 -20.5 8.5t-8.5 20.5t8.5 20.5t20.5 8.5h498q12 0 20.5 -8.5
t8.5 -20.5t-8.5 -20.5t-20.5 -8.5h-13v-117q0 -19 -7.5 -34.5t-17 -25.5t-27 -19.5t-28 -13.5t-29.5 -11q-30 -11 -39 -16q-10 -7 -10 -15q0 -9 10 -15z" />
  </font>
</defs>
</svg>
